<svg width="45" height="44" viewBox="0 0 45 44" fill="none" xmlns="http://www.w3.org/2000/svg">
<g filter="url(#filter0_d_161_116)">
<ellipse cx="23.2186" cy="21" rx="20.9388" ry="21" fill="url(#paint0_linear_161_116)"/>
</g>
<path d="M30.0287 32C29.1507 32 28.4052 31.6969 27.7923 31.0908C27.1796 30.4846 26.8733 29.7486 26.8733 28.8827C26.8733 28.7669 26.9138 28.4855 26.995 28.0386L18.6529 23.191C18.3702 23.4805 18.0343 23.7073 17.6452 23.8713C17.2562 24.0353 16.8394 24.1173 16.3948 24.1173C15.5207 24.1173 14.7776 23.813 14.1657 23.2043C13.5538 22.5957 13.2478 21.8609 13.2478 21C13.2478 20.1391 13.5538 19.4043 14.1657 18.7957C14.7776 18.187 15.5207 17.8827 16.3948 17.8827C16.8394 17.8827 17.2562 17.9647 17.6452 18.1287C18.0343 18.2927 18.3702 18.5195 18.6529 18.809L26.995 13.9724C26.9484 13.83 26.9165 13.6905 26.8991 13.5539C26.8819 13.4172 26.8733 13.2717 26.8733 13.1173C26.8733 12.2514 27.1805 11.5154 27.795 10.9092C28.4096 10.3031 29.156 10 30.034 10C30.912 10 31.6574 10.3034 32.2701 10.9101C32.883 11.5166 33.1895 12.2533 33.1895 13.1199C33.1895 13.9866 32.8825 14.7225 32.2684 15.3275C31.6543 15.9323 30.9086 16.2347 30.0314 16.2347C29.5846 16.2347 29.1692 16.1508 28.785 15.9831C28.4007 15.8154 28.0671 15.5868 27.7844 15.2974L19.4423 20.1449C19.4889 20.2875 19.5208 20.427 19.5382 20.5635C19.5554 20.7001 19.564 20.8456 19.564 21C19.564 21.1544 19.5554 21.2999 19.5382 21.4365C19.5208 21.573 19.4889 21.7125 19.4423 21.8551L27.7844 26.7026C28.0671 26.4132 28.4007 26.1846 28.785 26.0169C29.1692 25.8492 29.5846 25.7653 30.0314 25.7653C30.9086 25.7653 31.6543 26.0686 32.2684 26.6751C32.8825 27.2819 33.1895 28.0186 33.1895 28.8853C33.1895 29.7519 32.8822 30.4877 32.2675 31.0925C31.653 31.6975 30.9068 32 30.0287 32Z" fill="white"/>
<defs>
<filter id="filter0_d_161_116" x="0.679785" y="0" width="43.4776" height="43.6" filterUnits="userSpaceOnUse" color-interpolation-filters="sRGB">
<feFlood flood-opacity="0" result="BackgroundImageFix"/>
<feColorMatrix in="SourceAlpha" type="matrix" values="0 0 0 0 0 0 0 0 0 0 0 0 0 0 0 0 0 0 127 0" result="hardAlpha"/>
<feOffset dx="-1" dy="1"/>
<feGaussianBlur stdDeviation="0.3"/>
<feComposite in2="hardAlpha" operator="out"/>
<feColorMatrix type="matrix" values="0 0 0 0 0 0 0 0 0 0 0 0 0 0 0 0 0 0 0.24 0"/>
<feBlend mode="normal" in2="BackgroundImageFix" result="effect1_dropShadow_161_116"/>
<feBlend mode="normal" in="SourceGraphic" in2="effect1_dropShadow_161_116" result="shape"/>
</filter>
<linearGradient id="paint0_linear_161_116" x1="2.27979" y1="21" x2="44.1573" y2="21" gradientUnits="userSpaceOnUse">
<stop stop-color="#D98D00"/>
<stop offset="0.543269" stop-color="#EE5E36"/>
<stop offset="1" stop-color="#FFC863"/>
</linearGradient>
</defs>
</svg>
